<mxfile host="app.diagrams.net" agent="Mozilla/5.0 (Windows NT 10.0; Win64; x64) AppleWebKit/537.36 (KHTML, like Gecko) Chrome/129.0.0.0 Safari/537.36" version="24.7.17">
  <diagram name="Page-1" id="qD4j5WN-2LIRBsbVMZ-2">
    <mxGraphModel dx="1050" dy="522" grid="1" gridSize="10" guides="1" tooltips="1" connect="1" arrows="1" fold="1" page="1" pageScale="1" pageWidth="827" pageHeight="1169" math="0" shadow="0">
      <root>
        <mxCell id="0" />
        <mxCell id="1" parent="0" />
        <mxCell id="N7p36I6J8Jq7rMEWyYGd-10" style="edgeStyle=orthogonalEdgeStyle;rounded=0;orthogonalLoop=1;jettySize=auto;html=1;entryX=1;entryY=0.5;entryDx=0;entryDy=0;startArrow=classic;startFill=1;" edge="1" parent="1" source="N7p36I6J8Jq7rMEWyYGd-1" target="N7p36I6J8Jq7rMEWyYGd-9">
          <mxGeometry relative="1" as="geometry" />
        </mxCell>
        <mxCell id="N7p36I6J8Jq7rMEWyYGd-11" style="edgeStyle=orthogonalEdgeStyle;rounded=0;orthogonalLoop=1;jettySize=auto;html=1;entryX=0.5;entryY=1;entryDx=0;entryDy=0;" edge="1" parent="1" source="N7p36I6J8Jq7rMEWyYGd-1" target="N7p36I6J8Jq7rMEWyYGd-5">
          <mxGeometry relative="1" as="geometry">
            <Array as="points">
              <mxPoint x="420" y="260" />
              <mxPoint x="260" y="260" />
            </Array>
          </mxGeometry>
        </mxCell>
        <mxCell id="N7p36I6J8Jq7rMEWyYGd-12" style="edgeStyle=orthogonalEdgeStyle;rounded=0;orthogonalLoop=1;jettySize=auto;html=1;startArrow=classicThin;startFill=0;" edge="1" parent="1" source="N7p36I6J8Jq7rMEWyYGd-1" target="N7p36I6J8Jq7rMEWyYGd-6">
          <mxGeometry relative="1" as="geometry" />
        </mxCell>
        <mxCell id="N7p36I6J8Jq7rMEWyYGd-13" style="edgeStyle=orthogonalEdgeStyle;rounded=0;orthogonalLoop=1;jettySize=auto;html=1;entryX=0.5;entryY=1;entryDx=0;entryDy=0;" edge="1" parent="1" source="N7p36I6J8Jq7rMEWyYGd-1" target="N7p36I6J8Jq7rMEWyYGd-7">
          <mxGeometry relative="1" as="geometry">
            <Array as="points">
              <mxPoint x="420" y="260" />
              <mxPoint x="580" y="260" />
            </Array>
          </mxGeometry>
        </mxCell>
        <mxCell id="N7p36I6J8Jq7rMEWyYGd-1" value="Broker" style="rounded=0;whiteSpace=wrap;html=1;fillColor=#d5e8d4;strokeColor=#82b366;" vertex="1" parent="1">
          <mxGeometry x="360" y="280" width="120" height="60" as="geometry" />
        </mxCell>
        <mxCell id="N7p36I6J8Jq7rMEWyYGd-5" value="Felismerő Node 1" style="rounded=0;whiteSpace=wrap;html=1;fillColor=#dae8fc;strokeColor=#6c8ebf;" vertex="1" parent="1">
          <mxGeometry x="200" y="110" width="120" height="60" as="geometry" />
        </mxCell>
        <mxCell id="N7p36I6J8Jq7rMEWyYGd-6" value="Felismerő Node 2" style="rounded=0;whiteSpace=wrap;html=1;fillColor=#dae8fc;strokeColor=#6c8ebf;" vertex="1" parent="1">
          <mxGeometry x="360" y="110" width="120" height="60" as="geometry" />
        </mxCell>
        <mxCell id="N7p36I6J8Jq7rMEWyYGd-7" value="Felismerő Node 3" style="rounded=0;whiteSpace=wrap;html=1;fillColor=#dae8fc;strokeColor=#6c8ebf;" vertex="1" parent="1">
          <mxGeometry x="520" y="110" width="120" height="60" as="geometry" />
        </mxCell>
        <mxCell id="N7p36I6J8Jq7rMEWyYGd-14" style="edgeStyle=orthogonalEdgeStyle;rounded=0;orthogonalLoop=1;jettySize=auto;html=1;startArrow=classic;startFill=1;" edge="1" parent="1" source="N7p36I6J8Jq7rMEWyYGd-8" target="N7p36I6J8Jq7rMEWyYGd-1">
          <mxGeometry relative="1" as="geometry" />
        </mxCell>
        <mxCell id="N7p36I6J8Jq7rMEWyYGd-8" value="Felhasználó" style="rounded=0;whiteSpace=wrap;html=1;fillColor=#ffe6cc;strokeColor=#d79b00;" vertex="1" parent="1">
          <mxGeometry x="640" y="280" width="120" height="60" as="geometry" />
        </mxCell>
        <mxCell id="N7p36I6J8Jq7rMEWyYGd-9" value="Control Node" style="rounded=0;whiteSpace=wrap;html=1;fillColor=#f8cecc;strokeColor=#b85450;" vertex="1" parent="1">
          <mxGeometry x="80" y="280" width="120" height="60" as="geometry" />
        </mxCell>
        <mxCell id="N7p36I6J8Jq7rMEWyYGd-15" value="mqtt_publish_message.py&lt;div&gt;mqtt_publish_file.py&lt;/div&gt;" style="text;html=1;align=center;verticalAlign=middle;whiteSpace=wrap;rounded=0;" vertex="1" parent="1">
          <mxGeometry x="530" y="310" width="60" height="30" as="geometry" />
        </mxCell>
        <mxCell id="N7p36I6J8Jq7rMEWyYGd-16" value="ControlNode/+" style="text;html=1;align=center;verticalAlign=middle;whiteSpace=wrap;rounded=0;" vertex="1" parent="1">
          <mxGeometry x="250" y="310" width="60" height="30" as="geometry" />
        </mxCell>
        <mxCell id="N7p36I6J8Jq7rMEWyYGd-17" value="system/Node1/+" style="text;html=1;align=center;verticalAlign=middle;whiteSpace=wrap;rounded=0;" vertex="1" parent="1">
          <mxGeometry x="180" y="200" width="60" height="30" as="geometry" />
        </mxCell>
        <mxCell id="N7p36I6J8Jq7rMEWyYGd-18" value="system/Node2/+" style="text;html=1;align=center;verticalAlign=middle;whiteSpace=wrap;rounded=0;" vertex="1" parent="1">
          <mxGeometry x="340" y="200" width="60" height="30" as="geometry" />
        </mxCell>
        <mxCell id="N7p36I6J8Jq7rMEWyYGd-19" value="system/Node3/+" style="text;html=1;align=center;verticalAlign=middle;whiteSpace=wrap;rounded=0;" vertex="1" parent="1">
          <mxGeometry x="500" y="200" width="60" height="30" as="geometry" />
        </mxCell>
      </root>
    </mxGraphModel>
  </diagram>
</mxfile>
